<?xml version="1.0" encoding="UTF-8"?> <svg xmlns="http://www.w3.org/2000/svg" width="300" height="186" viewBox="0 0 300 186"><g id="Group_2852" data-name="Group 2852" transform="translate(-478 -139)"><rect id="Rectangle_47" data-name="Rectangle 47" width="300" height="186" transform="translate(478 139)" fill="#051c2c"></rect><g id="Group_2846" data-name="Group 2846" transform="translate(-1142.302 21.636)"><path id="Path_2882" data-name="Path 2882" d="M306.025,208.859a7.566,7.566,0,0,0-5.42-7.007,4.7,4.7,0,0,0,.082-.927,6.107,6.107,0,0,0-6.327-5.833,6.638,6.638,0,0,0-4.451,1.69,6.638,6.638,0,0,0-4.451-1.69,6.107,6.107,0,0,0-6.327,5.833,4.7,4.7,0,0,0,.082.927,7.545,7.545,0,0,0-5.42,7.007,6.791,6.791,0,0,0,1.463,4.225,7.731,7.731,0,0,0-1.463,4.473,7.974,7.974,0,0,0,3.566,6.533,6.967,6.967,0,0,0,7.213,6.41,7.421,7.421,0,0,0,5.338-2.185,7.509,7.509,0,0,0,5.338,2.185,7.029,7.029,0,0,0,7.193-6,7.313,7.313,0,0,0,3.586-6.162,7.016,7.016,0,0,0-1.9-4.74,7.054,7.054,0,0,0,1.9-4.741Zm-10.8,10a1.881,1.881,0,0,0,1.216,2.35,2.983,2.983,0,0,1,2.246,2.679,3.524,3.524,0,0,1-6.924,0v-9.5a3.2,3.2,0,0,1,3.462-2.865,1.875,1.875,0,1,0,0-3.75,7.644,7.644,0,0,0-3.462.825v-1.216a1.875,1.875,0,1,0-3.75,0v7.543a8.253,8.253,0,0,0-1.113-.453,1.88,1.88,0,0,0-1.134,3.586,2.983,2.983,0,0,1,2.246,2.679V223.9a3.524,3.524,0,0,1-6.924,0,2.623,2.623,0,0,1,.8-1.834,1.875,1.875,0,0,0,.557-1.319,1.855,1.855,0,0,0-.535-1.319,1.874,1.874,0,0,0-1.319-.557,1.855,1.855,0,0,0-1.319.535,6.389,6.389,0,0,0-.68.8,4.05,4.05,0,0,1-1.03-2.638,4.667,4.667,0,0,1,3.874-4.307,1.859,1.859,0,0,0,1.174-.825,1.914,1.914,0,0,0,.247-1.422,1.859,1.859,0,0,0-.825-1.174,1.914,1.914,0,0,0-1.422-.247,9.764,9.764,0,0,0-2.514.969,3.076,3.076,0,0,1-.515-1.711c0-2,1.937-3.648,4.307-3.668h.062a1.932,1.932,0,0,0,1.216-.453,1.89,1.89,0,0,0,.371-2.432c-.02-.02-.02-.042-.042-.062,0-.02-.02-.02-.02-.042-.02-.042-.062-.062-.082-.1l-.042-.042a1.8,1.8,0,0,1-.433-1.154,2.635,2.635,0,0,1,5.152,0,1.875,1.875,0,0,0,3.751,0,2.635,2.635,0,0,1,5.152,0,1.787,1.787,0,0,1-.1.557,8.642,8.642,0,0,0-2.308.619,1.839,1.839,0,0,0-1.01,1.03,1.936,1.936,0,0,0,0,1.443,1.839,1.839,0,0,0,1.03,1.01,1.936,1.936,0,0,0,1.442,0,5.373,5.373,0,0,1,1.9-.391h.082c2.39.02,4.328,1.669,4.328,3.668a3.578,3.578,0,0,1-2.061,3.091,1.884,1.884,0,0,0,0,3.338,3.543,3.543,0,0,1,2.061,3.091,3.326,3.326,0,0,1-.825,2.143,7.087,7.087,0,0,0-3.854-2.865,1.9,1.9,0,0,0-2.432,1.216Z" transform="translate(1480.125 -1.961)" fill="#fff" stroke="#051c2c" stroke-width="2"></path><path id="Path_2883" data-name="Path 2883" d="M175.759,233.1a7.939,7.939,0,0,0-3.215.68l-7.811-7.811a2.371,2.371,0,0,1-.7-1.69v-3.586h.6a8.4,8.4,0,0,0,2.164-.268,2.372,2.372,0,1,0-1.174-4.6,4.073,4.073,0,0,1-.989.124H129.8a3.958,3.958,0,0,1-3.957-3.957v-34.81a3.947,3.947,0,0,1,.124-.989,2.363,2.363,0,0,0-.247-1.793,2.473,2.473,0,0,0-1.443-1.092,2.363,2.363,0,0,0-1.793.247A2.473,2.473,0,0,0,121.392,175a8.512,8.512,0,0,0-.268,2.164v.8h-8.718a7.994,7.994,0,1,0-.165,4.741h8.9v2.39H115.6a2.37,2.37,0,1,0,0,4.74h5.544l0,2.391h-23a2.37,2.37,0,0,0,0,4.741H121.1v2.39h-5.544a2.37,2.37,0,1,0,0,4.74H121.1v2.39h-3.586a7.075,7.075,0,0,0-5.028,2.081L105.46,215.6a7.994,7.994,0,1,0,4.04,6.945,7.869,7.869,0,0,0-.8-3.483l7.151-7.151a2.371,2.371,0,0,1,1.69-.7h3.586v.8a8.7,8.7,0,0,0,8.7,8.7h.8v9.769a8.025,8.025,0,1,0,4.719.062v-9.81h2.39v5.544a2.37,2.37,0,0,0,4.74,0v-5.544h2.39v22.958a2.37,2.37,0,0,0,4.74,0V220.707h2.576v5.544a2.37,2.37,0,1,0,4.74,0v-5.544h2.37v3.586a7.075,7.075,0,0,0,2.081,5.028l7.584,7.584a7.881,7.881,0,0,0-1.2,4.2,8,8,0,1,0,8-8.017Zm-71.1-49.771a3.257,3.257,0,1,1,3.257-3.257A3.263,3.263,0,0,1,104.657,183.324ZM101.5,225.8a3.257,3.257,0,1,1,3.257-3.257A3.263,3.263,0,0,1,101.5,225.8Zm31.407,15.6a3.257,3.257,0,1,1,3.257-3.257A3.263,3.263,0,0,1,132.911,241.4Zm42.847,2.947a3.257,3.257,0,1,1,3.257-3.257A3.263,3.263,0,0,1,175.758,244.348Z" transform="translate(1622.796 16.258)" fill="#fff" stroke="#051c2c" stroke-width="2"></path><path id="Path_2884" data-name="Path 2884" d="M263.046,75.62a2.267,2.267,0,0,0,0-4.534H240V68.51h5.626a2.267,2.267,0,1,0,0-4.534h-5.647V61.4h3.668a6.919,6.919,0,0,0,4.967-2.061l7.131-7.131a7.853,7.853,0,0,0,3.524.825,8,8,0,1,0-8-8,7.887,7.887,0,0,0,1.134,4.081L245.4,56.124a2.445,2.445,0,0,1-1.752.721h-3.668v-.906a8.6,8.6,0,0,0-8.594-8.594h-.907V37.906a7.994,7.994,0,1,0-4.555-.042v9.48h-2.555V41.7a2.267,2.267,0,0,0-4.534,0v5.647h-2.576V24.283a2.267,2.267,0,0,0-4.534,0V47.345h-2.576V41.7a2.267,2.267,0,0,0-4.534,0v5.647h-2.39V43.677a6.919,6.919,0,0,0-2.061-4.967L192.6,31.145a7.989,7.989,0,1,0-6.739,3.71,8.131,8.131,0,0,0,3.318-.721l7.79,7.79a2.445,2.445,0,0,1,.721,1.752v3.668H196.6a8.355,8.355,0,0,0-2.143.268,2.2,2.2,0,0,0-1.381,1.051,2.263,2.263,0,0,0-.247,1.711,2.154,2.154,0,0,0,1.051,1.381,2.3,2.3,0,0,0,1.731.247,4.243,4.243,0,0,1,1.01-.124h34.829a4.055,4.055,0,0,1,4.06,4.06V90.767a4.108,4.108,0,0,1-.124,1.01,2.264,2.264,0,0,0,1.628,2.762,2.539,2.539,0,0,0,.557.062,2.29,2.29,0,0,0,2.205-1.711,8.358,8.358,0,0,0,.268-2.143V89.84h9.707a7.99,7.99,0,1,0-.433-4.534h-9.295V82.73h5.605a2.267,2.267,0,1,0,0-4.534h-5.647V75.62Zm-3.751-33.861a3.257,3.257,0,1,1-3.257,3.257A3.263,3.263,0,0,1,259.294,41.759ZM182.587,26.838a3.257,3.257,0,1,1,3.257,3.257A3.263,3.263,0,0,1,182.587,26.838Zm45.711.1a3.257,3.257,0,1,1-3.257,3.257,3.263,3.263,0,0,1,3.257-3.257Zm28.833,56.675a3.257,3.257,0,1,1-3.257,3.257A3.263,3.263,0,0,1,257.131,83.615Z" transform="translate(1556.036 137.502)" fill="#fff" stroke="#051c2c" stroke-width="2"></path></g></g></svg> 